<svg width="12" height="12" viewBox="0 0 12 12" fill="none" xmlns="http://www.w3.org/2000/svg">
<path d="M6.33667 0.239577L7.70553 3.17266C7.93293 3.65994 8.32465 4.05166 8.81194 4.27906L11.745 5.64792C11.8818 5.71176 11.9692 5.84906 11.9692 5.99999C11.9692 6.15092 11.8818 6.28821 11.745 6.35205L8.81194 7.72092C8.32465 7.94832 7.93293 8.34003 7.70553 8.82732L6.33667 11.7604C6.27283 11.8972 6.13554 11.9846 5.98461 11.9846C5.83368 11.9846 5.69638 11.8972 5.63254 11.7604L4.26368 8.82732C4.03628 8.34003 3.64456 7.94832 3.15728 7.72092L0.224196 6.35205C0.0874037 6.28821 0 6.15092 0 5.99999C0 5.84906 0.0874037 5.71176 0.224196 5.64792L3.15728 4.27906C3.64456 4.05166 4.03628 3.65994 4.26368 3.17266L5.63254 0.239577C5.69638 0.102785 5.83368 0.0153809 5.98461 0.0153809C6.13554 0.0153809 6.27283 0.102785 6.33667 0.239577Z" fill="#FCB818"/>
</svg>
